<?xml version="1.0" encoding="UTF-8" standalone="no"?><svg xmlns="http://www.w3.org/2000/svg" xmlns:xlink="http://www.w3.org/1999/xlink" contentScriptType="application/ecmascript" contentStyleType="text/css" height="364px" preserveAspectRatio="none" style="width:412px;height:364px;background:#FEFEFE;" version="1.1" viewBox="0 0 412 364" width="412px" zoomAndPan="magnify"><defs><filter height="300%" id="f15wfso0hn0niz" width="300%" x="-1" y="-1"><feGaussianBlur result="blurOut" stdDeviation="2.0"/><feColorMatrix in="blurOut" result="blurOut2" type="matrix" values="0 0 0 0 0 0 0 0 0 0 0 0 0 0 0 0 0 0 .4 0"/><feOffset dx="4.0" dy="4.0" in="blurOut2" result="blurOut3"/><feBlend in="SourceGraphic" in2="blurOut3" mode="normal"/></filter></defs><g><rect fill="#FFFFFF" filter="url(#f15wfso0hn0niz)" height="29.1328" style="stroke: #383838; stroke-width: 1.0;" width="10" x="174.5" y="117.4297"/><rect fill="#FFFFFF" filter="url(#f15wfso0hn0niz)" height="71.2656" style="stroke: #383838; stroke-width: 1.0;" width="10" x="174.5" y="263.0938"/><rect fill="#FFFFFF" filter="url(#f15wfso0hn0niz)" height="58.2656" style="stroke: #383838; stroke-width: 1.0;" width="10" x="298.5" y="175.6953"/><line style="stroke: #383838; stroke-width: 1.0; stroke-dasharray: 5.0,5.0;" x1="36" x2="36" y1="86.2969" y2="352.3594"/><line style="stroke: #383838; stroke-width: 1.0; stroke-dasharray: 5.0,5.0;" x1="179" x2="179" y1="86.2969" y2="352.3594"/><line style="stroke: #383838; stroke-width: 1.0; stroke-dasharray: 5.0,5.0;" x1="303.5" x2="303.5" y1="86.2969" y2="352.3594"/><line style="stroke: #383838; stroke-width: 1.0; stroke-dasharray: 5.0,5.0;" x1="387.5" x2="387.5" y1="86.2969" y2="352.3594"/><rect fill="#F8F8F8" filter="url(#f15wfso0hn0niz)" height="30.2969" style="stroke: #383838; stroke-width: 1.5;" width="53" x="8" y="51"/><text fill="#000000" font-family="sans-serif" font-size="14" lengthAdjust="spacingAndGlyphs" textLength="39" x="15" y="70.9951">Client</text><rect fill="#F8F8F8" filter="url(#f15wfso0hn0niz)" height="30.2969" style="stroke: #383838; stroke-width: 1.5;" width="45" x="155" y="51"/><text fill="#000000" font-family="sans-serif" font-size="14" lengthAdjust="spacingAndGlyphs" textLength="31" x="162" y="70.9951">TIRA</text><rect fill="#F8F8F8" filter="url(#f15wfso0hn0niz)" height="30.2969" style="stroke: #383838; stroke-width: 1.5;" width="106" x="248.5" y="51"/><text fill="#000000" font-family="sans-serif" font-size="14" lengthAdjust="spacingAndGlyphs" textLength="92" x="255.5" y="70.9951">Auth Provider</text><text fill="#000000" font-family="sans-serif" font-size="14" lengthAdjust="spacingAndGlyphs" textLength="32" x="368.5" y="82.9951">User</text><ellipse cx="387.5" cy="13" fill="#F8F8F8" filter="url(#f15wfso0hn0niz)" rx="8" ry="8" style="stroke: #383838; stroke-width: 2.0;"/><path d="M387.5,21 L387.5,48 M374.5,29 L400.5,29 M387.5,48 L374.5,63 M387.5,48 L400.5,63 " fill="none" filter="url(#f15wfso0hn0niz)" style="stroke: #383838; stroke-width: 2.0;"/><rect fill="#FFFFFF" filter="url(#f15wfso0hn0niz)" height="29.1328" style="stroke: #383838; stroke-width: 1.0;" width="10" x="174.5" y="117.4297"/><rect fill="#FFFFFF" filter="url(#f15wfso0hn0niz)" height="71.2656" style="stroke: #383838; stroke-width: 1.0;" width="10" x="174.5" y="263.0938"/><rect fill="#FFFFFF" filter="url(#f15wfso0hn0niz)" height="58.2656" style="stroke: #383838; stroke-width: 1.0;" width="10" x="298.5" y="175.6953"/><polygon fill="#383838" points="162.5,113.4297,172.5,117.4297,162.5,121.4297,166.5,117.4297" style="stroke: #383838; stroke-width: 1.0;"/><line style="stroke: #383838; stroke-width: 1.0;" x1="36.5" x2="168.5" y1="117.4297" y2="117.4297"/><text fill="#000000" font-family="sans-serif" font-size="13" lengthAdjust="spacingAndGlyphs" textLength="32" x="43.5" y="112.3638">/user</text><polygon fill="#383838" points="47.5,142.5625,37.5,146.5625,47.5,150.5625,43.5,146.5625" style="stroke: #383838; stroke-width: 1.0;"/><line style="stroke: #383838; stroke-width: 1.0; stroke-dasharray: 2.0,2.0;" x1="41.5" x2="178.5" y1="146.5625" y2="146.5625"/><text fill="#000000" font-family="sans-serif" font-size="13" lengthAdjust="spacingAndGlyphs" textLength="114" x="53.5" y="141.4966">401 Unauthorized</text><polygon fill="#383838" points="286.5,171.6953,296.5,175.6953,286.5,179.6953,290.5,175.6953" style="stroke: #383838; stroke-width: 1.0;"/><line style="stroke: #383838; stroke-width: 1.0;" x1="36.5" x2="292.5" y1="175.6953" y2="175.6953"/><text fill="#000000" font-family="sans-serif" font-size="13" lengthAdjust="spacingAndGlyphs" textLength="90" x="43.5" y="170.6294">Auth. Request</text><polygon fill="#383838" points="319.5,200.8281,309.5,204.8281,319.5,208.8281,315.5,204.8281" style="stroke: #383838; stroke-width: 1.0;"/><polygon fill="#383838" points="375.5,200.8281,385.5,204.8281,375.5,208.8281,379.5,204.8281" style="stroke: #383838; stroke-width: 1.0;"/><line style="stroke: #383838; stroke-width: 1.0;" x1="313.5" x2="381.5" y1="204.8281" y2="204.8281"/><text fill="#000000" font-family="sans-serif" font-size="13" lengthAdjust="spacingAndGlyphs" textLength="34" x="325.5" y="199.7622">Login</text><polygon fill="#383838" points="47.5,229.9609,37.5,233.9609,47.5,237.9609,43.5,233.9609" style="stroke: #383838; stroke-width: 1.0;"/><line style="stroke: #383838; stroke-width: 1.0; stroke-dasharray: 2.0,2.0;" x1="41.5" x2="302.5" y1="233.9609" y2="233.9609"/><text fill="#000000" font-family="sans-serif" font-size="13" lengthAdjust="spacingAndGlyphs" textLength="189" x="53.5" y="228.895">Auth. Reponse with JWT Token</text><polygon fill="#383838" points="162.5,259.0938,172.5,263.0938,162.5,267.0938,166.5,263.0938" style="stroke: #383838; stroke-width: 1.0;"/><line style="stroke: #383838; stroke-width: 1.0;" x1="36.5" x2="168.5" y1="263.0938" y2="263.0938"/><text fill="#000000" font-family="sans-serif" font-size="13" lengthAdjust="spacingAndGlyphs" textLength="86" x="43.5" y="258.0278">/user with JWT</text><line style="stroke: #383838; stroke-width: 1.0;" x1="184.5" x2="226.5" y1="292.2266" y2="292.2266"/><line style="stroke: #383838; stroke-width: 1.0;" x1="226.5" x2="226.5" y1="292.2266" y2="305.2266"/><line style="stroke: #383838; stroke-width: 1.0;" x1="185.5" x2="226.5" y1="305.2266" y2="305.2266"/><polygon fill="#383838" points="195.5,301.2266,185.5,305.2266,195.5,309.2266,191.5,305.2266" style="stroke: #383838; stroke-width: 1.0;"/><text fill="#000000" font-family="sans-serif" font-size="13" lengthAdjust="spacingAndGlyphs" textLength="100" x="191.5" y="287.1606">Verify signature</text><polygon fill="#383838" points="47.5,330.3594,37.5,334.3594,47.5,338.3594,43.5,334.3594" style="stroke: #383838; stroke-width: 1.0;"/><line style="stroke: #383838; stroke-width: 1.0; stroke-dasharray: 2.0,2.0;" x1="41.5" x2="178.5" y1="334.3594" y2="334.3594"/><text fill="#000000" font-family="sans-serif" font-size="13" lengthAdjust="spacingAndGlyphs" textLength="24" x="53.5" y="329.2935">200</text><!--MD5=[10ca619f27c76d5adb2a6349cf691467]
@startuml
skinparam monochrome true
skinparam BackgroundColor #fefefe
hide footbox

participant Client
participant TIRA
participant "Auth Provider"
actor User

Client -> TIRA: /user
activate TIRA
TIRA - -> Client: 401 Unauthorized
deactivate TIRA
Client -> "Auth Provider": Auth. Request
activate "Auth Provider"
"Auth Provider" <-> User: Login
"Auth Provider" - -> Client: Auth. Reponse with JWT Token
deactivate "Auth Provider"
Client -> TIRA: /user with JWT
activate TIRA
TIRA -> TIRA: Verify signature
TIRA - -> Client: 200
deactivate TIRA

@enduml

PlantUML version 1.2020.02(Sun Mar 01 10:22:07 UTC 2020)
(GPL source distribution)
Java Runtime: OpenJDK Runtime Environment
JVM: OpenJDK 64-Bit Server VM
Java Version: 17.0.16+8
Operating System: Linux
Default Encoding: UTF-8
Language: en
Country: null
--></g></svg>