<?xml version="1.0" encoding="UTF-8"?><svg id="Layer_3" xmlns="http://www.w3.org/2000/svg" viewBox="0 0 320 320"><defs><style>.cls-1{fill:#eeecfd;}.cls-2{fill:#e3dffc;}.cls-3{fill:#f1f5fd;}.cls-4{fill:#b9cdf4;}.cls-5{fill:#aaa7bd;}.cls-6{fill:#37363d;}.cls-7{fill:#1b1b1e;}.cls-8{fill:#5f5e64;}.cls-9{fill:#4f81e4;}</style></defs><ellipse class="cls-9" cx="158.33" cy="120.57" rx="132.95" ry="106.41"/><path class="cls-4" d="m144.96,23.99c-.31,2.85,25.76,1.61,39.04,20.3,8.1,11.39,3.18,18.56,11.07,25.08,10.25,8.48,21.58-1.13,49.43,2.95,17.37,2.54,24.69,8,26.58,5.29,3.41-4.88-15.85-29.11-41.4-43.34-39.91-22.22-84.31-13.98-84.72-10.29Z"/><path class="cls-3" d="m229.65,40.46c.93-2.09-6.16-8.26-14.03-10.01-.75-.17-6.55-1.42-7.33.26-.8,1.71,3.9,6.04,8.74,8.3,4.96,2.31,11.81,3.25,12.61,1.46Z"/><rect class="cls-2" x="88.09" y="154.12" width="143.82" height="151.72"/><path class="cls-6" d="m193.02,211.84c0-10.71-14.35-19.39-32.05-19.39s-32.05,8.68-32.05,19.39c0,.12.01.24.01.36h-.01v77.64h64.11v-77.64h-.01c0-.12.01-.24.01-.36Z"/><polygon class="cls-5" points="88.09 305.84 4.22 277.07 4.22 125.35 88.09 154.12 88.09 305.84"/><path class="cls-7" d="m70.03,207.77c0-10.87-10-24.23-22.33-29.84-12.33-5.61-22.33-1.35-22.33,9.51,0,.12,0,.25.01.37h-.01s0,78.78,0,78.78l44.65,17.02v-75.48h-.01c0-.12.01-.24.01-.36Z"/><polygon class="cls-1" points="231.91 305.84 315.78 277.07 315.78 125.35 231.91 154.12 231.91 305.84"/><path class="cls-8" d="m251.52,207.77c0-10.87,10-24.23,22.33-29.84,12.33-5.61,22.33-1.35,22.33,9.51,0,.12,0,.25-.01.37h.01s0,78.78,0,78.78l-44.65,17.02v-75.48s.01,0,.01,0c0-.12-.01-.24-.01-.36Z"/><path d="m26.19,108.79c-.81,3.28-.81,6.11-.81,6.11.49,14.02,74.52,29.71,135.18,29.84,26.56.06,44.39-2.68,59.01-4.99,15.83-2.5,70.52-14.05,71.62-23.35.34-2.85-.51-6.06-.51-6.06,0,0,9.63,5.52,25.11,15.02l-84.88,28.78H88.09L4.22,125.35c9.11-6.87,12.86-9.69,21.97-16.56Z"/></svg>