<?xml version="1.0" encoding="UTF-8" standalone="no"?><svg xmlns="http://www.w3.org/2000/svg" xmlns:xlink="http://www.w3.org/1999/xlink" contentScriptType="application/ecmascript" contentStyleType="text/css" height="336px" preserveAspectRatio="none" style="width:269px;height:336px;background:#FEFEFE;" version="1.1" viewBox="0 0 269 336" width="269px" zoomAndPan="magnify"><defs><filter height="300%" id="fsv4owim9jgms" width="300%" x="-1" y="-1"><feGaussianBlur result="blurOut" stdDeviation="2.0"/><feColorMatrix in="blurOut" result="blurOut2" type="matrix" values="0 0 0 0 0 0 0 0 0 0 0 0 0 0 0 0 0 0 .4 0"/><feOffset dx="4.0" dy="4.0" in="blurOut2" result="blurOut3"/><feBlend in="SourceGraphic" in2="blurOut3" mode="normal"/></filter></defs><g><rect fill="#FFFFFF" filter="url(#fsv4owim9jgms)" height="29.1328" style="stroke: #383838; stroke-width: 1.0;" width="10" x="22" y="233.9609"/><rect fill="#FFFFFF" filter="url(#fsv4owim9jgms)" height="188.7969" style="stroke: #383838; stroke-width: 1.0;" width="10" x="103" y="117.4297"/><rect fill="#FFFFFF" filter="url(#fsv4owim9jgms)" height="29.1328" style="stroke: #383838; stroke-width: 1.0;" width="10" x="189" y="146.5625"/><rect fill="#FFFFFF" filter="url(#fsv4owim9jgms)" height="87.3984" style="stroke: #383838; stroke-width: 1.0;" width="10" x="243" y="204.8281"/><line style="stroke: #383838; stroke-width: 1.0; stroke-dasharray: 5.0,5.0;" x1="27" x2="27" y1="86.2969" y2="324.2266"/><line style="stroke: #383838; stroke-width: 1.0; stroke-dasharray: 5.0,5.0;" x1="107.5" x2="107.5" y1="86.2969" y2="324.2266"/><line style="stroke: #383838; stroke-width: 1.0; stroke-dasharray: 5.0,5.0;" x1="194" x2="194" y1="86.2969" y2="324.2266"/><line style="stroke: #383838; stroke-width: 1.0; stroke-dasharray: 5.0,5.0;" x1="248" x2="248" y1="86.2969" y2="324.2266"/><text fill="#000000" font-family="sans-serif" font-size="14" lengthAdjust="spacingAndGlyphs" textLength="32" x="8" y="82.9951">User</text><ellipse cx="27" cy="13" fill="#F8F8F8" filter="url(#fsv4owim9jgms)" rx="8" ry="8" style="stroke: #383838; stroke-width: 2.0;"/><path d="M27,21 L27,48 M14,29 L40,29 M27,48 L14,63 M27,48 L40,63 " fill="none" filter="url(#fsv4owim9jgms)" style="stroke: #383838; stroke-width: 2.0;"/><rect fill="#F8F8F8" filter="url(#fsv4owim9jgms)" height="30.2969" style="stroke: #383838; stroke-width: 1.5;" width="23" x="94.5" y="51"/><text fill="#000000" font-family="sans-serif" font-size="14" lengthAdjust="spacingAndGlyphs" textLength="9" x="101.5" y="70.9951">A</text><rect fill="#F8F8F8" filter="url(#fsv4owim9jgms)" height="30.2969" style="stroke: #383838; stroke-width: 1.5;" width="24" x="180" y="51"/><text fill="#000000" font-family="sans-serif" font-size="14" lengthAdjust="spacingAndGlyphs" textLength="10" x="187" y="70.9951">B</text><rect fill="#F8F8F8" filter="url(#fsv4owim9jgms)" height="30.2969" style="stroke: #383838; stroke-width: 1.5;" width="24" x="234" y="51"/><text fill="#000000" font-family="sans-serif" font-size="14" lengthAdjust="spacingAndGlyphs" textLength="10" x="241" y="70.9951">C</text><rect fill="#FFFFFF" filter="url(#fsv4owim9jgms)" height="29.1328" style="stroke: #383838; stroke-width: 1.0;" width="10" x="22" y="233.9609"/><rect fill="#FFFFFF" filter="url(#fsv4owim9jgms)" height="188.7969" style="stroke: #383838; stroke-width: 1.0;" width="10" x="103" y="117.4297"/><rect fill="#FFFFFF" filter="url(#fsv4owim9jgms)" height="29.1328" style="stroke: #383838; stroke-width: 1.0;" width="10" x="189" y="146.5625"/><rect fill="#FFFFFF" filter="url(#fsv4owim9jgms)" height="87.3984" style="stroke: #383838; stroke-width: 1.0;" width="10" x="243" y="204.8281"/><polygon fill="#383838" points="91,113.4297,101,117.4297,91,121.4297,95,117.4297" style="stroke: #383838; stroke-width: 1.0;"/><line style="stroke: #383838; stroke-width: 1.0;" x1="27" x2="97" y1="117.4297" y2="117.4297"/><text fill="#000000" font-family="sans-serif" font-size="13" lengthAdjust="spacingAndGlyphs" textLength="57" x="34" y="112.3638">get thing</text><polygon fill="#383838" points="177,142.5625,187,146.5625,177,150.5625,181,146.5625" style="stroke: #383838; stroke-width: 1.0;"/><line style="stroke: #383838; stroke-width: 1.0;" x1="113" x2="183" y1="146.5625" y2="146.5625"/><text fill="#000000" font-family="sans-serif" font-size="13" lengthAdjust="spacingAndGlyphs" textLength="57" x="120" y="141.4966">get thing</text><polygon fill="#383838" points="124,171.6953,114,175.6953,124,179.6953,120,175.6953" style="stroke: #383838; stroke-width: 1.0;"/><line style="stroke: #383838; stroke-width: 1.0; stroke-dasharray: 2.0,2.0;" x1="118" x2="193" y1="175.6953" y2="175.6953"/><text fill="#000000" font-family="sans-serif" font-size="13" lengthAdjust="spacingAndGlyphs" textLength="16" x="130" y="170.6294">no</text><polygon fill="#383838" points="231,200.8281,241,204.8281,231,208.8281,235,204.8281" style="stroke: #383838; stroke-width: 1.0;"/><line style="stroke: #383838; stroke-width: 1.0;" x1="113" x2="237" y1="204.8281" y2="204.8281"/><text fill="#000000" font-family="sans-serif" font-size="13" lengthAdjust="spacingAndGlyphs" textLength="111" x="120" y="199.7622">give thing to user</text><polygon fill="#383838" points="43,229.9609,33,233.9609,43,237.9609,39,233.9609" style="stroke: #383838; stroke-width: 1.0;"/><line style="stroke: #383838; stroke-width: 1.0;" x1="37" x2="242" y1="233.9609" y2="233.9609"/><text fill="#000000" font-family="sans-serif" font-size="13" lengthAdjust="spacingAndGlyphs" textLength="76" x="49" y="228.895">here you go</text><polygon fill="#383838" points="231,259.0938,241,263.0938,231,267.0938,235,263.0938" style="stroke: #383838; stroke-width: 1.0;"/><line style="stroke: #383838; stroke-width: 1.0; stroke-dasharray: 2.0,2.0;" x1="27" x2="237" y1="263.0938" y2="263.0938"/><text fill="#000000" font-family="sans-serif" font-size="13" lengthAdjust="spacingAndGlyphs" textLength="43" x="34" y="258.0278">thanks</text><polygon fill="#383838" points="124,288.2266,114,292.2266,124,296.2266,120,292.2266" style="stroke: #383838; stroke-width: 1.0;"/><line style="stroke: #383838; stroke-width: 1.0; stroke-dasharray: 2.0,2.0;" x1="118" x2="247" y1="292.2266" y2="292.2266"/><text fill="#000000" font-family="sans-serif" font-size="13" lengthAdjust="spacingAndGlyphs" textLength="32" x="130" y="287.1606">done</text><polygon fill="#383838" points="38,302.2266,28,306.2266,38,310.2266,34,306.2266" style="stroke: #383838; stroke-width: 1.0;"/><line style="stroke: #383838; stroke-width: 1.0; stroke-dasharray: 2.0,2.0;" x1="32" x2="107" y1="306.2266" y2="306.2266"/><!--MD5=[dff34d687da3c9648a5050aa78382f1b]
@startuml
skinparam monochrome true
skinparam BackgroundColor #fefefe
hide footbox

actor User
participant A
participant B
participant C

User -> A: get thing
activate A
A -> B: get thing
activate B
B - -> A: no
deactivate B
A -> C: give thing to user
activate C
C -> User: here you go
activate User
User - -> C: thanks
deactivate User
C - -> A: done
deactivate C
A - -> User
deactivate A

@enduml

PlantUML version 1.2020.02(Sun Mar 01 10:22:07 UTC 2020)
(GPL source distribution)
Java Runtime: OpenJDK Runtime Environment
JVM: OpenJDK 64-Bit Server VM
Java Version: 17.0.15+6
Operating System: Linux
Default Encoding: UTF-8
Language: en
Country: null
--></g></svg>